<?xml version="1.0" encoding="UTF-8"?>
<svg xmlns="http://www.w3.org/2000/svg" xmlns:xlink="http://www.w3.org/1999/xlink" width="375pt" height="374.999991pt" viewBox="0 0 375 374.999991" version="1.2">
<defs>
<clipPath id="clip1">
  <path d="M 37.5 37.5 L 337 37.5 L 337 337.5 L 37.5 337.5 Z M 37.5 37.5 "/>
</clipPath>
</defs>
<g id="surface1">
<g clip-path="url(#clip1)" clip-rule="nonzero">
<path style=" stroke:none;fill-rule:nonzero;fill:rgb(0%,0%,0%);fill-opacity:1;" d="M 267.117188 277.351562 L 177.265625 277.351562 L 177.265625 117.617188 L 267.117188 117.617188 Z M 177.265625 47.734375 L 267.117188 47.734375 L 267.117188 107.632812 L 177.265625 107.632812 Z M 47.484375 202.476562 L 47.484375 172.523438 C 47.484375 164.257812 54.191406 157.550781 62.457031 157.550781 C 70.726562 157.550781 77.433594 164.257812 77.433594 172.523438 L 77.433594 202.476562 C 77.433594 210.742188 70.726562 217.449219 62.457031 217.449219 C 54.191406 217.449219 47.484375 210.742188 47.484375 202.476562 Z M 302.058594 129.667969 L 328.480469 156.085938 C 329.453125 157.0625 330.722656 157.550781 332.007812 157.550781 C 333.296875 157.550781 334.5625 157.0625 335.539062 156.085938 C 337.488281 154.136719 337.488281 150.980469 335.539062 149.027344 L 305.589844 119.078125 C 303.636719 117.128906 300.480469 117.128906 298.53125 119.078125 L 277.101562 140.507812 L 277.101562 42.742188 C 277.101562 39.992188 274.859375 37.75 272.109375 37.75 L 172.273438 37.75 C 169.527344 37.75 167.285156 39.992188 167.285156 42.742188 L 167.285156 140.507812 L 145.855469 119.078125 C 143.90625 117.128906 140.746094 117.128906 138.796875 119.078125 L 108.847656 149.027344 C 106.894531 150.980469 106.894531 154.136719 108.847656 156.085938 C 110.796875 158.039062 113.953125 158.039062 115.90625 156.085938 L 142.324219 129.667969 L 167.285156 154.625 L 167.285156 190.425781 L 145.855469 168.996094 C 143.90625 167.046875 140.746094 167.046875 138.796875 168.996094 L 108.847656 198.945312 C 106.894531 200.894531 106.894531 204.054688 108.847656 206.003906 C 110.796875 207.953125 113.953125 207.953125 115.90625 206.003906 L 142.324219 179.582031 L 167.285156 204.542969 L 167.285156 240.339844 L 145.855469 218.914062 C 143.90625 216.960938 140.746094 216.960938 138.796875 218.914062 L 108.847656 248.863281 C 106.894531 250.8125 106.894531 253.972656 108.847656 255.921875 C 110.796875 257.871094 113.953125 257.871094 115.90625 255.921875 L 142.324219 229.5 L 167.285156 254.457031 L 167.285156 282.34375 C 167.285156 285.089844 169.527344 287.332031 172.273438 287.332031 L 217.199219 287.332031 L 217.199219 312.292969 C 217.199219 320.558594 210.492188 327.265625 202.226562 327.265625 L 162.292969 327.265625 C 154.023438 327.265625 147.316406 320.558594 147.316406 312.292969 L 147.316406 302.308594 C 147.316406 288.542969 136.125 277.351562 122.359375 277.351562 C 108.59375 277.351562 97.398438 288.542969 97.398438 302.308594 L 97.398438 312.292969 C 97.398438 320.558594 90.691406 327.265625 82.425781 327.265625 C 74.15625 327.265625 67.449219 320.558594 67.449219 312.292969 L 67.449219 226.925781 C 78.835938 224.605469 87.417969 214.523438 87.417969 202.476562 L 87.417969 172.523438 C 87.417969 158.757812 76.222656 147.566406 62.457031 147.566406 C 48.691406 147.566406 37.5 158.757812 37.5 172.523438 L 37.5 202.476562 C 37.5 214.523438 46.078125 224.605469 57.464844 226.925781 L 57.464844 312.292969 C 57.464844 326.058594 68.660156 337.25 82.425781 337.25 C 96.191406 337.25 107.382812 326.058594 107.382812 312.292969 L 107.382812 302.308594 C 107.382812 294.042969 114.089844 287.332031 122.359375 287.332031 C 130.625 287.332031 137.332031 294.042969 137.332031 302.308594 L 137.332031 312.292969 C 137.332031 326.058594 148.527344 337.25 162.292969 337.25 L 202.226562 337.25 C 215.992188 337.25 227.183594 326.058594 227.183594 312.292969 L 227.183594 287.332031 L 272.109375 287.332031 C 274.859375 287.332031 277.101562 285.089844 277.101562 282.34375 L 277.101562 254.457031 L 302.058594 229.5 L 328.480469 255.921875 C 329.453125 256.894531 330.722656 257.382812 332.007812 257.382812 C 333.296875 257.382812 334.5625 256.894531 335.539062 255.921875 C 337.488281 253.972656 337.488281 250.8125 335.539062 248.863281 L 305.589844 218.914062 C 303.636719 216.960938 300.480469 216.960938 298.53125 218.914062 L 277.101562 240.339844 L 277.101562 204.542969 L 302.058594 179.582031 L 328.480469 206.003906 C 329.453125 206.980469 330.722656 207.464844 332.007812 207.464844 C 333.296875 207.464844 334.5625 206.980469 335.539062 206.003906 C 337.488281 204.054688 337.488281 200.894531 335.539062 198.945312 L 305.589844 168.996094 C 303.636719 167.046875 300.480469 167.046875 298.53125 168.996094 L 277.101562 190.425781 L 277.101562 154.625 L 302.058594 129.667969 "/>
</g>
<path style=" stroke:none;fill-rule:nonzero;fill:rgb(0%,0%,0%);fill-opacity:1;" d="M 67.449219 202.476562 L 67.449219 192.492188 C 67.449219 189.742188 65.207031 187.5 62.457031 187.5 C 59.710938 187.5 57.464844 189.742188 57.464844 192.492188 L 57.464844 202.476562 C 57.464844 205.222656 59.710938 207.464844 62.457031 207.464844 C 65.207031 207.464844 67.449219 205.222656 67.449219 202.476562 "/>
<path style=" stroke:none;fill-rule:nonzero;fill:rgb(0%,0%,0%);fill-opacity:1;" d="M 202.226562 77.683594 C 199.476562 77.683594 197.234375 75.441406 197.234375 72.691406 C 197.234375 69.941406 199.476562 67.699219 202.226562 67.699219 C 204.976562 67.699219 207.21875 69.941406 207.21875 72.691406 C 207.21875 75.441406 204.976562 77.683594 202.226562 77.683594 Z M 202.226562 57.714844 C 193.957031 57.714844 187.25 64.425781 187.25 72.691406 C 187.25 80.957031 193.957031 87.667969 202.226562 87.667969 C 210.492188 87.667969 217.199219 80.957031 217.199219 72.691406 C 217.199219 64.425781 210.492188 57.714844 202.226562 57.714844 "/>
<path style=" stroke:none;fill-rule:nonzero;fill:rgb(0%,0%,0%);fill-opacity:1;" d="M 242.160156 77.683594 C 239.410156 77.683594 237.167969 75.441406 237.167969 72.691406 C 237.167969 69.941406 239.410156 67.699219 242.160156 67.699219 C 244.910156 67.699219 247.152344 69.941406 247.152344 72.691406 C 247.152344 75.441406 244.910156 77.683594 242.160156 77.683594 Z M 242.160156 57.714844 C 233.890625 57.714844 227.183594 64.425781 227.183594 72.691406 C 227.183594 80.957031 233.890625 87.667969 242.160156 87.667969 C 250.425781 87.667969 257.132812 80.957031 257.132812 72.691406 C 257.132812 64.425781 250.425781 57.714844 242.160156 57.714844 "/>
<path style=" stroke:none;fill-rule:nonzero;fill:rgb(0%,0%,0%);fill-opacity:1;" d="M 192.242188 227.433594 C 189.492188 227.433594 187.25 229.675781 187.25 232.425781 L 187.25 262.375 C 187.25 265.125 189.492188 267.367188 192.242188 267.367188 C 194.992188 267.367188 197.234375 265.125 197.234375 262.375 L 197.234375 232.425781 C 197.234375 229.675781 194.992188 227.433594 192.242188 227.433594 "/>
<path style=" stroke:none;fill-rule:nonzero;fill:rgb(0%,0%,0%);fill-opacity:1;" d="M 192.242188 197.484375 C 189.492188 197.484375 187.25 199.726562 187.25 202.476562 L 187.25 212.457031 C 187.25 215.207031 189.492188 217.449219 192.242188 217.449219 C 194.992188 217.449219 197.234375 215.207031 197.234375 212.457031 L 197.234375 202.476562 C 197.234375 199.726562 194.992188 197.484375 192.242188 197.484375 "/>
</g>
</svg>
